<svg id="Layer_1" data-name="Layer 1" xmlns="http://www.w3.org/2000/svg" xmlns:xlink="http://www.w3.org/1999/xlink" viewBox="0 0 227.08 349.58"><defs><style>.cls-1{fill:#e1ebff;}.cls-2{fill:#0194f3;}.cls-3{fill:url(#linear-gradient);}.cls-4{fill:url(#linear-gradient-2);}.cls-5{fill:url(#linear-gradient-3);}.cls-6{fill:url(#linear-gradient-4);}</style><linearGradient id="linear-gradient" x1="-1060.54" y1="402.04" x2="-989.5" y2="402.04" gradientTransform="matrix(1, 0, 0, -1, 1325, 769.25)" gradientUnits="userSpaceOnUse"><stop offset="0" stop-color="#0194f3"/><stop offset="0.32" stop-color="#0198f4"/><stop offset="0.63" stop-color="#03a4f6"/><stop offset="0.95" stop-color="#05b8fa"/><stop offset="1" stop-color="#06bcfb"/></linearGradient><linearGradient id="linear-gradient-2" x1="-1060.54" y1="383.75" x2="-989.51" y2="383.75" gradientTransform="matrix(1, 0, 0, -1, 1325, 769.25)" gradientUnits="userSpaceOnUse"><stop offset="0" stop-color="#0194f3"/><stop offset="0" stop-color="#0196f3"/><stop offset="0" stop-color="#029df5"/><stop offset="0" stop-color="#04a8f7"/><stop offset="0" stop-color="#06b9fa"/><stop offset="0" stop-color="#06bcfb"/><stop offset="0.01" stop-color="#06b9fa"/><stop offset="0.13" stop-color="#04a8f7"/><stop offset="0.26" stop-color="#029df5"/><stop offset="0.46" stop-color="#0196f3"/><stop offset="1" stop-color="#0194f3"/></linearGradient><linearGradient id="linear-gradient-3" x1="-1025" y1="390.61" x2="-1025" y2="194.46" gradientTransform="matrix(1, 0, 0, -1, 1325, 769.25)" gradientUnits="userSpaceOnUse"><stop offset="0" stop-color="#0194f3"/><stop offset="0" stop-color="#0495f3"/><stop offset="0" stop-color="#0d98f4" stop-opacity="0.99"/><stop offset="0" stop-color="#1c9ff4" stop-opacity="0.97"/><stop offset="0" stop-color="#33a7f6" stop-opacity="0.94"/><stop offset="0" stop-color="#50b3f7" stop-opacity="0.91"/><stop offset="0" stop-color="#75c0f9" stop-opacity="0.87"/><stop offset="0" stop-color="#a0d1fb" stop-opacity="0.82"/><stop offset="0" stop-color="#d0e4fe" stop-opacity="0.77"/><stop offset="0" stop-color="#e3ebff" stop-opacity="0.75"/><stop offset="0.2" stop-color="#e5ecff" stop-opacity="0.76"/><stop offset="0.43" stop-color="#e9f0ff" stop-opacity="0.81"/><stop offset="0.68" stop-color="#f1f5ff" stop-opacity="0.88"/><stop offset="0.94" stop-color="#fcfdff" stop-opacity="0.98"/><stop offset="1" stop-color="#fff"/></linearGradient><linearGradient id="linear-gradient-4" x1="-1025.04" y1="390.61" x2="-1025.04" y2="194.46" xlink:href="#linear-gradient-3"/></defs><title>pagenotfound</title><rect class="cls-1" x="112.61" width="1.84" height="120.75"/><path class="cls-2" d="M308.27,350.08a9.21,9.21,0,0,0-16.57,0A36.16,36.16,0,0,1,308.27,350.08Z" transform="translate(-186.46 -225.21)"/><path class="cls-3" d="M300,380.75c19.14,0,34.74,2,35.48,4.56,0-.46,0-.93,0-1.39a35,35,0,0,0-27.24-33.84,36.16,36.16,0,0,0-16.57,0,35,35,0,0,0-27.24,33.84c0,.47,0,.93,0,1.39C265.25,382.77,280.84,380.75,300,380.75Z" transform="translate(-186.46 -225.21)"/><path class="cls-4" d="M300,380.75c-19.14,0-34.74,2-35.48,4.56a.59.59,0,0,0,0,.44c1,2.5,16.48,4.5,35.47,4.5s34.5-2,35.47-4.5a.59.59,0,0,0,0-.44C334.72,382.77,319.13,380.75,300,380.75Z" transform="translate(-186.46 -225.21)"/><path class="cls-5" d="M413.54,574.79l-78.19-188.9c-1.48,2.44-16.75,4.36-35.36,4.36s-33.9-1.91-35.36-4.36l-78.16,188.9Z" transform="translate(-186.46 -225.21)"/><path class="cls-6" d="M300,390.26c18.64,0,33.91-1.91,35.36-4.36l-.54-1.3c-3.18-2.18-17.57-3.84-34.86-3.84s-31.66,1.65-34.85,3.83l-.54,1.33C266.09,388.32,281.36,390.26,300,390.26Z" transform="translate(-186.46 -225.21)"/></svg>